<svg id="Layer_1" data-name="Layer 1" xmlns="http://www.w3.org/2000/svg" viewBox="0 0 414 285"><defs><style>.cls-1{fill:#006c2b;}.cls-2{fill:#fff;}.cls-3{fill:#f7df00;}.cls-4{fill:#006673;}</style></defs><title>buena vista</title><rect class="cls-1" width="138" height="285"/><rect class="cls-2" x="138" width="138" height="285"/><rect class="cls-3" x="276" width="138" height="285"/><path class="cls-3" d="M501.81,402.8c-.33,1-.9,2.72-1.26,3.84s-1.31,4-2.1,6.37-2,6.24-2.72,8.56l-1.39,4.22H467.89l2.12,1.58,10.57,7.57,8.58,6.16s.3-.52-2.37,7.55c-1,3.18-1.93,5.85-3.51,10.7l-1.8,5.45c-.22.63-.35,1.15-.35,1.15s-1.31,1,10.73-7.63l10.49-7.52.19-.14,4.25,3.08L523.93,466a19.6,19.6,0,0,0-.6-1.88c-.33-1-1.2-3.68-1.94-5.88-2.86-8.72-4-12.15-4.55-13.84-.81-2.48-1-3.16-1-3.25s4.79-3.48,10.65-7.68,10.65-7.65,10.65-7.68H510.6l-.89-2.72-2.27-6.87c-.73-2.23-2.15-6.54-3.13-9.56s-1.82-5.45-1.85-5.45A9.8,9.8,0,0,0,501.81,402.8Z" transform="translate(-433.22 -369.42)"/><path class="cls-3" d="M501.07,547c-.33,1-.9,2.72-1.26,3.84s-1.31,4-2.1,6.37-2,6.24-2.72,8.56L493.6,570H467.15l2.12,1.58,10.57,7.57,8.58,6.16s.3-.52-2.37,7.55c-1,3.18-1.93,5.85-3.51,10.7l-1.8,5.45c-.22.63-.35,1.15-.35,1.15s-1.31,1,10.73-7.63L501.61,595l.19-.14,4.25,3.08,17.14,12.26a19.6,19.6,0,0,0-.6-1.88c-.33-1-1.2-3.68-1.94-5.88-2.86-8.72-4-12.15-4.55-13.84-.81-2.48-1-3.16-1-3.25s4.79-3.48,10.65-7.68S536.37,570,536.37,570H509.86l-.89-2.72-2.27-6.87c-.73-2.23-2.15-6.54-3.13-9.56s-1.82-5.45-1.85-5.45A9.8,9.8,0,0,0,501.07,547Z" transform="translate(-433.22 -369.42)"/><path class="cls-1" d="M779.07,408c-.33,1-.9,2.72-1.26,3.84s-1.31,4-2.1,6.37-2,6.24-2.72,8.56L771.6,431H745.15l2.12,1.58,10.57,7.57,8.58,6.16s.3-.52-2.37,7.55c-1,3.18-1.93,5.85-3.51,10.7l-1.8,5.45c-.22.63-.35,1.15-.35,1.15s-1.31,1,10.73-7.63L779.61,456l.19-.14,4.25,3.08,17.14,12.26a19.6,19.6,0,0,0-.6-1.88c-.33-1-1.2-3.68-1.94-5.88-2.86-8.72-4-12.15-4.55-13.84-.81-2.48-1-3.16-1-3.25s4.79-3.48,10.65-7.68S814.37,431,814.37,431H787.86l-.89-2.72-2.27-6.87c-.73-2.23-2.15-6.54-3.13-9.56s-1.82-5.45-1.85-5.45A9.8,9.8,0,0,0,779.07,408Z" transform="translate(-433.22 -369.42)"/><path class="cls-1" d="M785.91,549c-.33,1-.9,2.72-1.26,3.84s-1.31,4-2.1,6.37-2,6.24-2.72,8.56L778.44,572H752l2.12,1.58,10.57,7.57,8.58,6.16s.3-.52-2.37,7.55c-1,3.18-1.93,5.85-3.51,10.7l-1.8,5.45c-.22.63-.35,1.15-.35,1.15s-1.31,1,10.73-7.63L786.45,597l.19-.14,4.25,3.08L808,612.21a19.6,19.6,0,0,0-.6-1.88c-.33-1-1.2-3.68-1.94-5.88-2.86-8.72-4-12.15-4.55-13.84-.81-2.48-1-3.16-1-3.25s4.79-3.48,10.65-7.68S821.21,572,821.21,572H794.7l-.89-2.72-2.27-6.87c-.73-2.23-2.15-6.54-3.13-9.56s-1.82-5.45-1.85-5.45A9.8,9.8,0,0,0,785.91,549Z" transform="translate(-433.22 -369.42)"/><path class="cls-4" d="M639.47,482c-.33,1-.9,2.72-1.26,3.84s-1.31,4-2.1,6.37-2,6.24-2.72,8.56L632,505H605.55l2.12,1.58,10.57,7.57,8.58,6.16s.3-.52-2.37,7.55c-1,3.18-1.93,5.85-3.51,10.7l-1.8,5.45c-.22.63-.35,1.15-.35,1.15s-1.31,1,10.73-7.63L640,530l.19-.14,4.25,3.08,17.14,12.26a19.6,19.6,0,0,0-.6-1.88c-.33-1-1.2-3.68-1.94-5.88-2.86-8.72-4-12.15-4.55-13.84-.81-2.48-1-3.16-1-3.25s4.79-3.48,10.65-7.68S674.77,505,674.77,505H648.26l-.89-2.72-2.27-6.87c-.73-2.23-2.15-6.54-3.13-9.56s-1.82-5.45-1.85-5.45A9.8,9.8,0,0,0,639.47,482Z" transform="translate(-433.22 -369.42)"/></svg>